<?xml version="1.0" encoding="UTF-8" standalone="no"?>
<!-- Created with Inkscape (http://www.inkscape.org/) -->

<svg
   width="512"
   height="512"
   viewBox="0 0 135.46666 135.46666"
   version="1.1"
   id="svg12"
   inkscape:version="1.1.2 (b8e25be833, 2022-02-05)"
   sodipodi:docname="icon.svg"
   xmlns:inkscape="http://www.inkscape.org/namespaces/inkscape"
   xmlns:sodipodi="http://sodipodi.sourceforge.net/DTD/sodipodi-0.dtd"
   xmlns:xlink="http://www.w3.org/1999/xlink"
   xmlns="http://www.w3.org/2000/svg"
   xmlns:svg="http://www.w3.org/2000/svg">
  <sodipodi:namedview
     id="namedview14"
     pagecolor="#505050"
     bordercolor="#ffffff"
     borderopacity="1"
     inkscape:pageshadow="0"
     inkscape:pageopacity="0"
     inkscape:pagecheckerboard="1"
     inkscape:document-units="mm"
     showgrid="false"
     width="512mm"
     units="px"
     inkscape:zoom="1.526922"
     inkscape:cx="344.15641"
     inkscape:cy="238.38808"
     inkscape:window-width="1920"
     inkscape:window-height="1017"
     inkscape:window-x="-8"
     inkscape:window-y="-8"
     inkscape:window-maximized="1"
     inkscape:current-layer="layer1" />
  <defs
     id="defs9">
    <linearGradient
       inkscape:collect="always"
       id="linearGradient3227">
      <stop
         style="stop-color:#0099ff;stop-opacity:1;"
         offset="0"
         id="stop3223" />
      <stop
         style="stop-color:#0099ff;stop-opacity:0;"
         offset="1"
         id="stop3225" />
    </linearGradient>
    <linearGradient
       inkscape:collect="always"
       xlink:href="#linearGradient3227"
       id="linearGradient3229"
       x1="235.41821"
       y1="205.62057"
       x2="723.02319"
       y2="861.20972"
       gradientUnits="userSpaceOnUse" />
  </defs>
  <g
     inkscape:groupmode="layer"
     id="layer2"
     inkscape:label="Layer 2">
    <path
       id="path51"
       style="fill:#000000;stroke-width:0.723557"
       d="M 256.14648 0.11914062 A 255.84298 255.92971 0 0 0 0.3046875 256.04883 A 255.84298 255.92971 0 0 0 256.14648 511.97852 A 255.84298 255.92971 0 0 0 511.99023 256.04883 A 255.84298 255.92971 0 0 0 256.14648 0.11914062 z M 251.48633 54.708984 C 293.31007 54.708984 327.24219 88.641094 327.24219 130.46484 C 327.24219 139.38198 325.50551 147.82552 322.60547 155.7168 L 327.24219 155.7168 C 355.16151 155.7168 377.74609 178.30138 377.74609 206.2207 C 377.74609 216.40044 374.51101 225.63412 369.30273 233.52539 C 402.99852 241.17992 428.25 271.16735 428.25 307.23047 C 428.25 349.07001 394.33368 382.98633 352.49414 382.98633 L 342.31445 382.98633 C 351.70508 372.56984 355.09823 357.7341 349.36523 344.41602 C 343.86502 329.73825 329.61371 319.86523 313.91797 319.86523 L 308.24023 319.86523 L 323.49414 284.27734 C 330.4937 267.2243 325.34087 249.20805 310.95508 238.73633 C 304.39743 233.97868 296.69551 231.47266 288.6543 231.47266 C 280.13172 230.76244 271.29276 234.78833 264.34766 240.92773 L 163.41797 329.23047 C 151.60868 339.53648 147.37642 356.36096 152.9082 371.07031 C 154.61903 375.63305 157.38776 379.50312 160.57031 382.98633 L 150.47852 382.98633 C 108.63898 382.98633 74.722656 349.07001 74.722656 307.23047 C 74.722656 271.16735 99.958245 241.18032 133.68555 233.48633 C 128.47494 225.61873 125.22656 216.38466 125.22656 206.2207 C 125.22656 178.2856 147.81903 155.7168 175.73047 155.7168 L 188.35547 155.7168 C 223.15598 155.7168 251.48633 127.41208 251.48633 92.587891 C 251.48633 78.872858 246.98811 66.245929 239.57031 55.892578 C 243.51595 55.300734 247.46178 54.708984 251.48633 54.708984 z M 289.83984 256.73047 C 292.27771 256.82185 294.7079 257.62177 296.8125 259.14844 C 301.57149 262.61271 303.32236 268.90964 301.00391 274.32227 L 270.66211 345.10742 L 314.61719 345.10742 C 319.90434 345.10742 324.55952 348.34427 325.71875 354.00781 C 327.56847 358.92409 326.18652 364.4861 322.21484 367.95117 L 221.20703 455.62305 C 218.84044 457.69453 215.88213 458.74219 212.89844 458.74219 C 211.00453 458.74219 208.3997 457.24231 206.16016 455.61719 C 201.40116 452.15287 199.6503 445.85595 201.96875 440.44336 L 232.31055 369.6582 L 188.37891 369.6582 C 183.12647 369.6582 178.4177 366.39882 176.56641 361.4668 C 174.71669 356.55052 176.09668 350.98851 180.06836 347.52344 L 281.07617 259.85156 C 283.55748 257.66694 286.70545 256.61298 289.83984 256.73047 z "
       transform="scale(0.26458333)" />
    <path
       style="fill:#ffffff;stroke-width:0.926186"
       d="m 208.15181,456.15154 c -3.68255,-2.24527 -6.69826,-6.96773 -6.70292,-10.49643 -0.002,-1.44037 6.91468,-18.73689 15.37019,-38.43671 8.45552,-19.69983 15.58543,-36.33885 15.84426,-36.9756 0.36921,-0.90833 -4.64845,-1.15774 -23.29224,-1.15774 -26.30283,0 -27.72321,-0.26627 -31.11782,-5.83362 -2.06321,-3.38378 -2.32931,-7.76913 -0.68977,-11.36753 1.24155,-2.7249 103.03537,-91.52001 107.43208,-93.71338 7.06121,-3.52259 16.47791,2.95211 16.47791,11.32982 0,1.36338 -6.91815,18.59691 -15.37366,38.29674 -8.45551,19.69982 -15.58543,36.33884 -15.84425,36.9756 -0.36942,0.90882 4.78327,1.15773 23.96634,1.15773 26.84365,0 27.09415,0.0478 30.0339,5.73266 2.4696,4.77567 2.02671,10.46425 -1.10154,14.14872 -2.60792,3.07163 -99.46554,87.37189 -104.08587,90.59141 -3.02835,2.11019 -7.20061,2.01401 -10.91661,-0.25167 z"
       id="path589"
       transform="scale(0.26458333)" />
    <path
       style="fill:#ffffff;stroke-width:0.926186"
       d="m 142.95804,382.04085 c -31.79937,-3.04307 -58.147105,-26.3432 -65.750329,-58.14508 -2.55395,-10.68237 -2.071796,-27.86242 1.058161,-37.70434 7.777047,-24.45434 25.691408,-42.78087 49.316228,-50.45084 3.43847,-1.11633 6.25176,-2.13753 6.25176,-2.26933 0,-0.13181 -1.26437,-2.76987 -2.80971,-5.86237 -3.01358,-6.03071 -5.48378,-15.9292 -5.50988,-22.07902 -0.0228,-5.37229 3.19562,-17.26504 6.19959,-22.90873 4.08635,-7.6772 14.34724,-17.37239 22.49609,-21.25583 8.77556,-4.1821 14.98552,-5.29892 29.5765,-5.31907 14.80474,-0.0205 22.36909,-1.61778 33.3641,-7.0453 18.98021,-9.36929 32.14848,-28.35732 34.10343,-49.175526 1.32875,-14.149901 -1.91253,-29.503433 -8.397,-39.775486 l -2.39404,-3.792416 3.41434,-0.564533 c 13.26521,-2.193293 31.78833,1.86319 45.59655,9.985448 16.50229,9.706955 28.34074,24.898167 34.3726,44.107243 1.88961,6.01765 2.16336,8.7144 2.11213,20.80654 -0.0487,11.49467 -0.39164,14.892 -1.98679,19.68145 l -1.92794,5.78866 h 4.3637 c 7.50546,0 15.07812,1.84699 22.83558,5.56965 17.89512,8.58753 29.7871,29.37945 27.8147,48.63117 -0.67661,6.6041 -3.3001,14.86766 -6.22014,19.59238 -1.09311,1.7687 -1.62205,3.52019 -1.17541,3.89221 0.44665,0.37201 3.72957,1.58433 7.29538,2.69403 13.10655,4.07883 27.78771,14.86826 36.12042,26.5455 5.57338,7.8104 10.22535,17.89513 12.60788,27.33188 2.83506,11.22916 2.20754,28.70701 -1.41474,39.40303 -6.8633,20.26624 -20.29669,35.8146 -38.79764,44.90598 -9.76068,4.79641 -18.87659,7.04156 -32.03298,7.88937 l -10.55045,0.67989 2.56585,-3.364 c 9.36207,-12.27432 9.02355,-31.41758 -0.79134,-44.75017 -6.78853,-9.22156 -16.28702,-14.3306 -28.96543,-15.5799 l -6.52463,-0.64293 8.22366,-19.2539 c 4.7197,-11.05012 8.59749,-21.55067 9.10099,-24.6443 3.16054,-19.41908 -9.81901,-38.29864 -29.52187,-42.94143 -7.53349,-1.77519 -17.12891,-0.83192 -23.53698,2.31378 -3.8376,1.88387 -19.35382,14.85638 -55.10806,46.07371 -27.37157,23.89835 -52.38125,45.98981 -55.57706,49.09211 -8.44135,8.19439 -11.60101,15.06203 -12.09173,26.28188 -0.4452,10.17925 1.0704,15.98745 5.94852,22.79621 l 3.15193,4.39938 -4.86094,-0.12954 c -2.67351,-0.0712 -8.04876,-0.43462 -11.945,-0.80746 z"
       id="path628"
       transform="scale(0.26458333)" />
    <path
       style="fill:url(#linearGradient3229);fill-opacity:1;stroke-width:0.926186"
       d="M 240.80832,511.18662 C 207.76754,507.9899 188.09999,503.62725 163.4718,494.03185 130.05233,481.01129 102.27717,462.69221 75.920418,436.28742 53.461077,413.78715 40.832103,396.15836 26.782485,367.69579 -2.7650663,307.83655 -7.2691436,238.12767 14.282835,174.24073 31.908104,121.99381 66.915985,76.065971 112.99467,44.737854 c 86.12323,-58.553721 198.7049,-58.819682 285.3694,-0.674151 25.89021,17.370437 50.91971,42.093773 67.90925,67.078597 23.09655,33.96577 36.51124,68.37817 42.78409,109.75303 2.92236,19.27544 2.91275,51.23757 -0.0211,70.39012 -8.53944,55.74538 -31.73916,103.1395 -69.54362,142.0689 -40.33536,41.5356 -90.27708,67.07177 -147.74409,75.54441 -12.30258,1.81383 -42.03681,3.14927 -50.94022,2.28786 z m -21.30227,-53.98653 c 3.71727,-2.29852 95.92711,-82.27438 102.11199,-88.56423 4.60527,-4.68345 4.86248,-5.19911 4.86248,-9.74896 0,-2.64218 -0.68138,-6.23985 -1.51417,-7.99483 -2.66133,-5.60832 -4.08222,-5.88784 -29.93016,-5.88784 -12.76035,0 -23.20062,-0.31259 -23.2006,-0.69464 10e-6,-0.38205 6.87445,-16.74081 15.27652,-36.35279 10.03346,-23.41997 15.2772,-36.77072 15.27857,-38.89981 0.006,-8.74787 -9.64738,-15.19678 -17.6326,-11.77986 -3.65822,1.56537 -105.15562,89.41663 -107.61631,93.14749 -3.57146,5.41498 -1.01952,14.71374 4.91086,17.89424 2.81286,1.50856 5.64719,1.69239 26.09319,1.69239 12.61565,0 22.93755,0.28175 22.93755,0.6261 0,0.34435 -6.70494,16.24497 -14.89987,35.3347 -8.19492,19.08972 -15.11906,36.05938 -15.38697,37.71036 -1.67026,10.29255 10.13331,18.82066 18.70952,13.51768 z M 368.90958,381.4658 c 26.67111,-5.58482 47.97985,-25.38806 56.67389,-52.66982 3.17351,-9.9584 3.6294,-27.84648 0.9914,-38.89981 -3.78437,-15.85668 -13.23963,-31.19085 -25.43951,-41.25683 -6.18597,-5.10396 -19.80112,-12.37937 -26.16592,-13.98205 -2.21761,-0.5584 -4.032,-1.32493 -4.032,-1.70339 0,-0.37847 1.21183,-3.36077 2.69296,-6.62733 8.75014,-19.29801 4.72127,-40.64407 -10.55429,-55.91963 -9.56824,-9.56825 -22.69959,-15.20364 -35.54588,-15.25473 -3.75369,-0.0149 -4.00068,-0.16583 -3.43715,-2.1 3.58301,-12.29773 4.27591,-26.67812 1.85108,-38.41746 -4.72441,-22.872322 -19.52998,-41.841884 -41.01637,-52.552022 -10.73936,-5.353153 -19.04516,-7.216607 -32.69608,-7.335548 -6.4522,-0.05622 -11.96481,0.13113 -12.25024,0.416329 -0.28543,0.285199 1.34946,4.244643 3.6331,8.798766 5.43133,10.831399 7.00773,17.277671 7.00773,28.656311 0,11.118594 -1.54265,17.611594 -6.7115,28.248664 -5.3742,11.0597 -16.41903,22.04962 -27.6464,27.50897 -10.54066,5.12543 -18.49794,6.75624 -33.06244,6.77599 -20.9675,0.0284 -32.03662,3.92381 -43.3479,15.25473 -10.49368,10.51191 -14.73251,20.97449 -14.63876,36.13251 0.0596,9.63432 1.76375,16.45392 5.83681,23.35725 1.32296,2.24223 1.51383,3.19708 0.68634,3.43353 -22.98969,6.56929 -41.54998,22.14326 -50.64887,42.49954 -4.755611,10.63939 -6.068525,17.48983 -6.068525,31.66393 0,14.63043 1.220327,20.62196 6.459865,31.71644 9.338789,19.77446 24.29316,33.11335 45.08979,40.21887 7.69633,2.62958 10.0811,3.0012 21.58165,3.36298 l 12.92921,0.40674 -2.67719,-3.50999 c -8.83793,-11.58712 -9.48087,-28.92767 -1.55598,-41.96622 1.66609,-2.74116 18.83324,-18.38617 53.39579,-48.66142 28.01712,-24.54175 53.3394,-46.55564 56.27173,-48.91976 9.60574,-7.74439 20.72089,-10.03833 32.24246,-6.65419 18.03648,5.29769 29.94388,23.70112 26.7598,41.3585 -0.5903,3.27351 -4.63224,14.17559 -9.30261,25.09136 -4.54232,10.61648 -8.25877,19.47313 -8.25877,19.68145 0,0.20832 1.61025,0.37875 3.57833,0.37875 15.95957,0 29.78042,8.67989 36.53943,22.94781 2.67172,5.63987 2.94988,7.05673 2.94988,15.02581 0,7.63881 -0.33195,9.50726 -2.51802,14.17295 -1.38492,2.9558 -3.36464,6.45047 -4.39938,7.76593 -1.03476,1.31547 -1.88137,2.68395 -1.88137,3.04106 0,1.10091 19.52333,0.0145 26.68391,-1.48497 z"
       id="path1114"
       transform="scale(0.26458333)" />
  </g>
  <g
     inkscape:label="Layer 1"
     inkscape:groupmode="layer"
     id="layer1" />
  <style
     id="style16">
    path { fill: #000000; }
    @media (prefers-color-scheme: dark) {
    path { fill: #ffffff; }
    }
  </style>
</svg>
