<?xml version="1.0" standalone="no"?>
<!DOCTYPE svg PUBLIC "-//W3C//DTD SVG 20010904//EN"
 "http://www.w3.org/TR/2001/REC-SVG-20010904/DTD/svg10.dtd">
<svg version="1.0" xmlns="http://www.w3.org/2000/svg"
 width="700.000000pt" height="700.000000pt" viewBox="0 0 700.000000 700.000000"
 preserveAspectRatio="xMidYMid meet">
<metadata>
Created by potrace 1.14, written by Peter Selinger 2001-2017
</metadata>
<g transform="translate(0.000000,700.000000) scale(0.100000,-0.100000)"
fill="#000000" stroke="none">
<path d="M3235 6993 c-105 -7 -296 -35 -435 -63 -1221 -246 -2233 -1146 -2624
-2335 -122 -372 -171 -686 -170 -1100 0 -262 7 -358 45 -583 227 -1360 1251
-2469 2592 -2808 290 -73 547 -104 867 -104 549 0 1064 121 1555 367 231 116
437 248 640 409 141 113 406 378 519 519 370 465 615 997 721 1572 72 391 74
853 5 1243 -166 926 -701 1754 -1475 2282 -496 338 -1069 543 -1675 598 -106
9 -446 11 -565 3z m355 -758 c411 -62 739 -356 847 -761 23 -85 26 -120 27
-249 1 -127 -3 -164 -23 -240 -13 -49 -25 -95 -28 -101 -3 -7 26 -13 84 -17
192 -14 333 -76 459 -201 210 -211 262 -508 134 -775 -22 -46 -39 -85 -38 -86
2 -1 30 -10 63 -20 33 -9 97 -34 141 -55 380 -177 613 -566 591 -984 -15 -268
-107 -475 -297 -666 -205 -207 -408 -296 -708 -309 -79 -3 -145 -4 -148 -2 -2
2 7 17 20 32 53 63 106 214 106 304 0 56 -29 165 -61 232 -58 123 -195 236
-329 273 -25 7 -82 16 -127 19 l-81 6 110 258 c62 146 116 289 125 330 63 300
-165 592 -482 614 -98 7 -186 -13 -263 -60 -63 -38 -182 -139 -922 -787 -305
-268 -576 -509 -602 -537 -94 -102 -133 -215 -126 -372 5 -115 24 -172 88
-266 l31 -45 -109 0 c-411 0 -762 215 -937 575 -84 171 -100 244 -100 455 0
151 3 187 23 260 47 172 128 314 257 449 125 131 262 217 430 271 39 13 73 24
76 26 4 2 -8 32 -26 66 -101 191 -101 433 2 631 53 103 181 229 288 284 123
63 179 74 430 84 252 9 292 17 440 89 178 86 309 218 395 395 59 123 80 200
87 330 9 169 -38 363 -118 489 -16 27 -27 52 -22 57 21 20 173 23 293 4z m461
-2780 c20 -13 43 -39 52 -58 37 -76 32 -90 -193 -618 -115 -270 -210 -493
-210 -495 0 -1 145 -4 323 -6 285 -3 326 -5 354 -21 40 -21 58 -48 74 -107 16
-61 5 -112 -33 -156 -24 -27 -873 -769 -1368 -1195 -34 -30 -73 -52 -101 -60
-42 -11 -49 -10 -89 12 -24 13 -57 41 -74 62 -27 33 -31 46 -30 95 1 51 24
109 209 537 114 264 209 486 212 493 4 9 -63 12 -313 12 -357 0 -377 4 -424
71 -35 48 -38 132 -8 181 19 31 287 267 1378 1212 92 79 163 91 241 41z"/>
</g>
</svg>
