<svg id="visual" viewBox="0 0 1920 100" width="1920" height="100" xmlns="http://www.w3.org/2000/svg" xmlns:xlink="http://www.w3.org/1999/xlink" version="1.1"><path d="M0 33L29.2 34.3C58.3 35.7 116.7 38.3 174.8 38.3C233 38.3 291 35.7 349.2 36.3C407.3 37 465.7 41 523.8 40.5C582 40 640 35 698.2 31.2C756.3 27.3 814.7 24.7 872.8 27.2C931 29.7 989 37.3 1047.2 43.5C1105.3 49.7 1163.7 54.3 1221.8 52.3C1280 50.3 1338 41.7 1396.2 37.5C1454.3 33.3 1512.7 33.7 1570.8 36.7C1629 39.7 1687 45.3 1745.2 47.3C1803.3 49.3 1861.7 47.7 1890.8 46.8L1920 46L1920 0L1890.8 0C1861.7 0 1803.3 0 1745.2 0C1687 0 1629 0 1570.8 0C1512.7 0 1454.3 0 1396.2 0C1338 0 1280 0 1221.8 0C1163.7 0 1105.3 0 1047.2 0C989 0 931 0 872.8 0C814.7 0 756.3 0 698.2 0C640 0 582 0 523.8 0C465.7 0 407.3 0 349.2 0C291 0 233 0 174.8 0C116.7 0 58.3 0 29.2 0L0 0Z" fill="#0d2e4f"></path><path d="M0 50L29.2 50.8C58.3 51.7 116.7 53.3 174.8 52.7C233 52 291 49 349.2 48.8C407.3 48.7 465.7 51.3 523.8 51.7C582 52 640 50 698.2 47.7C756.3 45.3 814.7 42.7 872.8 43.7C931 44.7 989 49.3 1047.2 53.8C1105.3 58.3 1163.7 62.7 1221.8 60.7C1280 58.7 1338 50.3 1396.2 48.5C1454.3 46.7 1512.7 51.3 1570.8 55.5C1629 59.7 1687 63.3 1745.2 64.5C1803.3 65.7 1861.7 64.3 1890.8 63.7L1920 63L1920 44L1890.8 44.8C1861.7 45.7 1803.3 47.3 1745.2 45.3C1687 43.3 1629 37.7 1570.8 34.7C1512.7 31.7 1454.3 31.3 1396.2 35.5C1338 39.7 1280 48.3 1221.8 50.3C1163.7 52.3 1105.3 47.7 1047.2 41.5C989 35.3 931 27.7 872.8 25.2C814.7 22.7 756.3 25.3 698.2 29.2C640 33 582 38 523.8 38.5C465.7 39 407.3 35 349.2 34.3C291 33.7 233 36.3 174.8 36.3C116.7 36.3 58.3 33.7 29.2 32.3L0 31Z" fill="#0f3962"></path><path d="M0 81L29.2 82.7C58.3 84.3 116.7 87.7 174.8 88.7C233 89.7 291 88.3 349.2 86.8C407.3 85.3 465.7 83.7 523.8 81.8C582 80 640 78 698.2 79C756.3 80 814.7 84 872.8 86.3C931 88.7 989 89.3 1047.2 89.5C1105.3 89.7 1163.7 89.3 1221.8 86.2C1280 83 1338 77 1396.2 76.2C1454.3 75.3 1512.7 79.7 1570.8 82.3C1629 85 1687 86 1745.2 86.3C1803.3 86.7 1861.7 86.3 1890.8 86.2L1920 86L1920 61L1890.8 61.7C1861.7 62.3 1803.3 63.7 1745.2 62.5C1687 61.3 1629 57.7 1570.8 53.5C1512.7 49.3 1454.3 44.7 1396.2 46.5C1338 48.3 1280 56.7 1221.8 58.7C1163.7 60.7 1105.3 56.3 1047.2 51.8C989 47.3 931 42.7 872.8 41.7C814.7 40.7 756.3 43.3 698.2 45.7C640 48 582 50 523.8 49.7C465.7 49.3 407.3 46.7 349.2 46.8C291 47 233 50 174.8 50.7C116.7 51.3 58.3 49.7 29.2 48.8L0 48Z" fill="#1e4a78"></path><path d="M0 101L29.2 101C58.3 101 116.7 101 174.8 101C233 101 291 101 349.2 101C407.3 101 465.7 101 523.8 101C582 101 640 101 698.2 101C756.3 101 814.7 101 872.8 101C931 101 989 101 1047.2 101C1105.3 101 1163.7 101 1221.8 101C1280 101 1338 101 1396.2 101C1454.3 101 1512.7 101 1570.8 101C1629 101 1687 101 1745.2 101C1803.3 101 1861.7 101 1890.8 101L1920 101L1920 84L1890.8 84.2C1861.7 84.3 1803.3 84.7 1745.2 84.3C1687 84 1629 83 1570.8 80.3C1512.7 77.7 1454.3 73.3 1396.2 74.2C1338 75 1280 81 1221.8 84.2C1163.7 87.3 1105.3 87.7 1047.2 87.5C989 87.3 931 86.7 872.8 84.3C814.7 82 756.3 78 698.2 77C640 76 582 78 523.8 79.8C465.7 81.7 407.3 83.3 349.2 84.8C291 86.3 233 87.7 174.8 86.7C116.7 85.7 58.3 82.3 29.2 80.7L0 79Z" fill="#356294"></path></svg>