<svg id="visual" viewBox="0 0 900 600" width="900" height="600" xmlns="http://www.w3.org/2000/svg" xmlns:xlink="http://www.w3.org/1999/xlink" version="1.1"><rect x="0" y="0" width="900" height="600" fill="#113e6b"></rect><defs><linearGradient id="grad1_0" x1="33.3%" y1="100%" x2="100%" y2="0%"><stop offset="20%" stop-color="#061d36" stop-opacity="1"></stop><stop offset="80%" stop-color="#061d36" stop-opacity="1"></stop></linearGradient></defs><defs><linearGradient id="grad1_1" x1="33.3%" y1="100%" x2="100%" y2="0%"><stop offset="20%" stop-color="#061d36" stop-opacity="1"></stop><stop offset="80%" stop-color="#0b2d50" stop-opacity="1"></stop></linearGradient></defs><defs><linearGradient id="grad1_2" x1="33.3%" y1="100%" x2="100%" y2="0%"><stop offset="20%" stop-color="#113e6b" stop-opacity="1"></stop><stop offset="80%" stop-color="#0b2d50" stop-opacity="1"></stop></linearGradient></defs><defs><linearGradient id="grad2_0" x1="0%" y1="100%" x2="66.7%" y2="0%"><stop offset="20%" stop-color="#061d36" stop-opacity="1"></stop><stop offset="80%" stop-color="#061d36" stop-opacity="1"></stop></linearGradient></defs><defs><linearGradient id="grad2_1" x1="0%" y1="100%" x2="66.7%" y2="0%"><stop offset="20%" stop-color="#0b2d50" stop-opacity="1"></stop><stop offset="80%" stop-color="#061d36" stop-opacity="1"></stop></linearGradient></defs><defs><linearGradient id="grad2_2" x1="0%" y1="100%" x2="66.7%" y2="0%"><stop offset="20%" stop-color="#0b2d50" stop-opacity="1"></stop><stop offset="80%" stop-color="#113e6b" stop-opacity="1"></stop></linearGradient></defs><g transform="translate(900, 600)"><path d="M-527 0C-496.5 -34.4 -466 -68.9 -448.5 -102.4C-430.9 -135.9 -426.3 -168.4 -415.3 -200C-404.4 -231.6 -387.2 -262.2 -372.9 -297.4C-358.7 -332.6 -347.5 -372.5 -326.1 -408.9C-304.7 -445.3 -273.2 -478.2 -234.7 -487.3C-196.1 -496.4 -150.6 -481.7 -110.4 -483.6C-70.1 -485.4 -35 -503.7 0 -522L0 0Z" fill="#0e355d"></path><path d="M-351.3 0C-331 -23 -310.7 -45.9 -299 -68.2C-287.3 -90.6 -284.2 -112.3 -276.9 -133.3C-269.6 -154.4 -258.1 -174.8 -248.6 -198.3C-239.1 -221.8 -231.6 -248.3 -217.4 -272.6C-203.1 -296.9 -182.1 -318.8 -156.4 -324.8C-130.8 -330.9 -100.4 -321.2 -73.6 -322.4C-46.7 -323.6 -23.4 -335.8 0 -348L0 0Z" fill="#082543"></path><path d="M-175.7 0C-165.5 -11.5 -155.3 -23 -149.5 -34.1C-143.6 -45.3 -142.1 -56.1 -138.4 -66.7C-134.8 -77.2 -129.1 -87.4 -124.3 -99.1C-119.6 -110.9 -115.8 -124.2 -108.7 -136.3C-101.6 -148.4 -91.1 -159.4 -78.2 -162.4C-65.4 -165.5 -50.2 -160.6 -36.8 -161.2C-23.4 -161.8 -11.7 -167.9 0 -174L0 0Z" fill="#061d36"></path></g><g transform="translate(0, 0)"><path d="M447 0C490.2 42.8 533.4 85.5 527.3 120.3C521.1 155.2 465.5 182.1 428.9 206.5C392.2 230.9 374.5 252.8 362 288.7C349.5 324.6 342.3 374.4 312.4 391.7C282.5 409 229.9 393.6 191.8 398.2C153.7 402.8 130.1 427.4 100.6 440.7C71 454 35.5 456 0 458L0 0Z" fill="#0e355d"></path><path d="M298 0C326.8 28.5 355.6 57 351.5 80.2C347.4 103.5 310.3 121.4 285.9 137.7C261.5 154 249.6 168.5 241.3 192.5C233 216.4 228.2 249.6 208.2 261.1C188.3 272.6 153.2 262.4 127.9 265.5C102.5 268.6 86.7 284.9 67.1 293.8C47.4 302.6 23.7 304 0 305.3L0 0Z" fill="#082543"></path><path d="M149 0C163.4 14.3 177.8 28.5 175.8 40.1C173.7 51.7 155.2 60.7 143 68.8C130.7 77 124.8 84.3 120.7 96.2C116.5 108.2 114.1 124.8 104.1 130.6C94.2 136.3 76.6 131.2 63.9 132.7C51.2 134.3 43.4 142.5 33.5 146.9C23.7 151.3 11.8 152 0 152.7L0 0Z" fill="#061d36"></path></g></svg>