<svg id="visual" viewBox="0 0 960 540" width="960" height="540" xmlns="http://www.w3.org/2000/svg" xmlns:xlink="http://www.w3.org/1999/xlink" version="1.1"><path d="M0 460L14.5 459.2C29 458.3 58 456.7 87.2 447.8C116.3 439 145.7 423 174.8 409C204 395 233 383 262 396.8C291 410.7 320 450.3 349 461.7C378 473 407 456 436.2 449.8C465.3 443.7 494.7 448.3 523.8 441.3C553 434.3 582 415.7 611 413C640 410.3 669 423.7 698 418.7C727 413.7 756 390.3 785.2 380C814.3 369.7 843.7 372.3 872.8 376.3C902 380.3 931 385.7 945.5 388.3L960 391L960 541L945.5 541C931 541 902 541 872.8 541C843.7 541 814.3 541 785.2 541C756 541 727 541 698 541C669 541 640 541 611 541C582 541 553 541 523.8 541C494.7 541 465.3 541 436.2 541C407 541 378 541 349 541C320 541 291 541 262 541C233 541 204 541 174.8 541C145.7 541 116.3 541 87.2 541C58 541 29 541 14.5 541L0 541Z" fill="#061d36" stroke-linecap="round" stroke-linejoin="miter"></path></svg>