<?xml version="1.0" encoding="UTF-8" standalone="no"?>
<svg
   id="svg"
   version="1.1"
   width="400"
   height="400"
   viewBox="0, 0, 400,400"
   sodipodi:docname="Weeialogo.svg"
   inkscape:version="1.1.2 (b8e25be833, 2022-02-05)"
   xmlns:inkscape="http://www.inkscape.org/namespaces/inkscape"
   xmlns:sodipodi="http://sodipodi.sourceforge.net/DTD/sodipodi-0.dtd"
   xmlns="http://www.w3.org/2000/svg"
   xmlns:svg="http://www.w3.org/2000/svg">
  <defs
     id="defs7" />
  <sodipodi:namedview
     id="namedview5"
     pagecolor="#505050"
     bordercolor="#ffffff"
     borderopacity="1"
     inkscape:pageshadow="0"
     inkscape:pageopacity="0"
     inkscape:pagecheckerboard="1"
     showgrid="false"
     inkscape:zoom="4.155"
     inkscape:cx="223.4657"
     inkscape:cy="173.2852"
     inkscape:window-width="1920"
     inkscape:window-height="1017"
     inkscape:window-x="-8"
     inkscape:window-y="-8"
     inkscape:window-maximized="1"
     inkscape:current-layer="svg" />
  <g
     id="svgg"
     style="fill:#ffffff"
     transform="matrix(1.3463404,0,0,1.4006176,-79.217629,-84.837419)">
    <path
       id="path0"
       d="m 195.778,71.16 c -21.15,1.591 -50.503,10.851 -66.255,20.901 -6.794,4.334 -8.724,5.626 -11.745,7.864 -37.51,27.777 -58.993,76.426 -52.044,117.853 1.972,11.752 6.836,28.165 10.251,34.588 0.218,0.41 1.257,2.545 2.308,4.745 12.083,25.273 33.344,46.445 60.151,59.9 20.186,10.131 31.976,13.393 60.488,16.738 8.388,0.985 8.179,1.512 8.179,-20.589 v -17.091 l -1.444,-0.439 c -0.795,-0.241 -3.645,-0.551 -6.334,-0.688 -64.607,-3.293 -110.463,-62.375 -92.143,-118.72 15.486,-47.627 71.615,-76.682 125.254,-64.837 43.457,9.596 77.046,45.724 78.978,84.948 l 0.269,5.445 h 19.043 19.044 v -4.316 c 0,-11.081 -2.533,-23.456 -7.759,-37.906 -2.448,-6.77 -11.29,-23.029 -16.991,-31.246 C 298.417,89.956 247.165,67.294 195.778,71.16 m -5.006,102.862 c -1.286,0.346 -2.886,0.727 -3.555,0.846 -2.627,0.468 -10.346,4.074 -14.428,6.74 -3.992,2.607 -6.724,5.122 -13.46,12.392 -0.68,0.733 -2.108,2.633 -3.174,4.222 -1.066,1.589 -2.276,3.389 -2.688,4 -4.608,6.828 -4.58,6.701 -1.853,8.396 5.03661,2.14058 14.00774,9.69413 17.205,9.626 0.481,-0.152 1.843,-1.72 3.026,-3.483 3.266,-4.868 10.559,-11.968 15.044,-14.646 11.406,-6.809 16.869,-4.668 35.343,13.852 16.455,16.494 21.174,20.231 32.959,26.102 10.922,5.44 19.972,6.201 28.142,2.367 0.489,-0.23 1.389,-0.632 2,-0.894 9.265,-3.973 21.636,-16.227 29.921,-29.636 -4.81349,-4.43314 -13.23861,-9.63567 -18.74,-12.067 l -1.582,1.636 C 277.084,221.93 277.28,221.786 270,221.643 c -7.686,-0.151 -11.604,-3.007 -32.212,-23.475 -8.381,-8.324 -16.887,-15.148 -22.592,-18.125 -0.658,-0.344 -1.296,-0.752 -1.418,-0.908 -0.484,-0.619 -6.995,-3.485 -9.334,-4.11 -7.25421,-1.77525 -9.15498,-1.74524 -13.672,-1.003"
       stroke="none"
       fill="#000000"
       fill-rule="evenodd"
       style="fill:#ffffff"
       sodipodi:nodetypes="ccccscccscccccccccscccccccsccccccccccccsscccc" />
  </g>
</svg>
